<svg xmlns="http://www.w3.org/2000/svg" xmlns:xlink="http://www.w3.org/1999/xlink" width="500" zoomAndPan="magnify" viewBox="0 0 375 374.999991" height="500" preserveAspectRatio="xMidYMid meet" version="1.0"><defs><clipPath id="0805fd09d9"><path d="M 12 12 L 364.347656 12 L 364.347656 366.304688 L 12 366.304688 Z M 12 12 " clip-rule="nonzero"/></clipPath></defs><g clip-path="url(#0805fd09d9)"><path fill="#000000" d="M 264.164062 366.289062 C 263.585938 366.289062 263.007812 366.261719 262.429688 366.207031 C 261.851562 366.148438 261.28125 366.0625 260.710938 365.949219 C 260.140625 365.835938 259.582031 365.695312 259.027344 365.527344 C 258.472656 365.359375 257.925781 365.164062 257.390625 364.941406 C 256.855469 364.722656 256.332031 364.472656 255.820312 364.199219 C 255.308594 363.925781 254.8125 363.628906 254.332031 363.304688 C 253.847656 362.984375 253.382812 362.640625 252.933594 362.269531 C 252.488281 361.902344 252.058594 361.515625 251.648438 361.105469 C 251.238281 360.695312 250.847656 360.265625 250.480469 359.816406 C 250.113281 359.367188 249.769531 358.902344 249.445312 358.421875 C 249.125 357.9375 248.828125 357.441406 248.554688 356.929688 C 248.28125 356.417969 248.03125 355.894531 247.8125 355.359375 C 247.589844 354.824219 247.394531 354.277344 247.226562 353.722656 C 247.058594 353.167969 246.917969 352.605469 246.804688 352.035156 C 246.691406 351.46875 246.605469 350.894531 246.550781 350.316406 C 246.492188 349.742188 246.464844 349.164062 246.464844 348.582031 L 246.464844 302.539062 C 246.738281 299.890625 246.738281 297.242188 246.457031 294.59375 C 246.175781 291.949219 245.625 289.359375 244.800781 286.828125 C 243.976562 284.292969 242.902344 281.875 241.570312 279.570312 C 240.242188 277.265625 238.6875 275.121094 236.90625 273.140625 C 235.804688 271.945312 234.882812 270.625 234.148438 269.175781 C 233.410156 267.726562 232.882812 266.203125 232.5625 264.609375 C 232.242188 263.015625 232.144531 261.40625 232.269531 259.785156 C 232.394531 258.164062 232.734375 256.589844 233.292969 255.0625 C 233.851562 253.535156 234.605469 252.109375 235.554688 250.792969 C 236.503906 249.472656 237.613281 248.304688 238.886719 247.292969 C 240.15625 246.277344 241.539062 245.453125 243.039062 244.824219 C 244.535156 244.191406 246.089844 243.773438 247.703125 243.570312 C 290.890625 238.433594 330.714844 224.621094 330.714844 149.710938 C 330.71875 146.234375 330.46875 142.773438 329.960938 139.332031 C 329.457031 135.890625 328.699219 132.507812 327.695312 129.175781 C 326.691406 125.847656 325.449219 122.609375 323.96875 119.460938 C 322.488281 116.316406 320.78125 113.292969 318.855469 110.398438 C 317.085938 107.742188 315.59375 104.941406 314.375 101.996094 C 313.152344 99.046875 312.234375 96.007812 311.609375 92.878906 C 310.988281 89.75 310.675781 86.589844 310.675781 83.398438 C 310.671875 80.207031 310.980469 77.046875 311.601562 73.917969 C 313.210938 65.59375 313.210938 57.273438 311.601562 48.949219 C 298.265625 53.457031 285.933594 59.894531 274.605469 68.25 C 273.542969 69.007812 272.410156 69.636719 271.203125 70.144531 C 270 70.648438 268.753906 71.015625 267.46875 71.246094 C 266.183594 71.476562 264.890625 71.5625 263.585938 71.503906 C 262.28125 71.449219 261 71.25 259.738281 70.90625 C 251.792969 68.660156 243.726562 66.96875 235.546875 65.835938 C 227.367188 64.703125 219.144531 64.132812 210.886719 64.132812 C 202.628906 64.132812 194.410156 64.703125 186.226562 65.835938 C 178.046875 66.96875 169.984375 68.660156 162.035156 70.90625 C 160.773438 71.25 159.492188 71.449219 158.1875 71.503906 C 156.882812 71.5625 155.589844 71.476562 154.304688 71.246094 C 153.019531 71.015625 151.773438 70.648438 150.570312 70.144531 C 149.367188 69.636719 148.230469 69.007812 147.167969 68.25 C 135.761719 59.792969 123.316406 53.359375 109.820312 48.949219 C 108.121094 57.273438 108.121094 65.59375 109.820312 73.917969 C 110.394531 77.089844 110.664062 80.285156 110.621094 83.507812 C 110.582031 86.730469 110.238281 89.917969 109.585938 93.074219 C 108.933594 96.230469 107.988281 99.292969 106.746094 102.269531 C 105.503906 105.242188 103.992188 108.070312 102.210938 110.753906 C 100.292969 113.667969 98.59375 116.707031 97.117188 119.871094 C 95.640625 123.035156 94.402344 126.289062 93.398438 129.632812 C 92.390625 132.972656 91.636719 136.371094 91.125 139.828125 C 90.613281 143.28125 90.355469 146.753906 90.351562 150.242188 C 90.351562 219.128906 123.625 237.546875 173.539062 243.921875 C 175.171875 244.125 176.746094 244.546875 178.261719 245.191406 C 179.777344 245.832031 181.175781 246.667969 182.457031 247.703125 C 183.742188 248.734375 184.855469 249.921875 185.808594 251.265625 C 186.757812 252.609375 187.507812 254.058594 188.054688 255.609375 C 188.570312 257.117188 188.875 258.664062 188.972656 260.253906 C 189.070312 261.84375 188.953125 263.417969 188.625 264.976562 C 188.300781 266.535156 187.773438 268.019531 187.042969 269.4375 C 186.316406 270.851562 185.414062 272.148438 184.335938 273.320312 C 182.617188 275.160156 181.101562 277.160156 179.792969 279.3125 C 178.488281 281.46875 177.414062 283.734375 176.578125 286.113281 C 175.738281 288.488281 175.152344 290.925781 174.820312 293.425781 C 174.488281 295.925781 174.414062 298.429688 174.601562 300.945312 L 174.601562 348.582031 C 174.601562 349.164062 174.574219 349.742188 174.515625 350.316406 C 174.460938 350.894531 174.375 351.46875 174.261719 352.035156 C 174.148438 352.605469 174.007812 353.167969 173.839844 353.722656 C 173.671875 354.277344 173.476562 354.824219 173.253906 355.359375 C 173.03125 355.894531 172.785156 356.417969 172.511719 356.929688 C 172.238281 357.441406 171.941406 357.9375 171.617188 358.421875 C 171.296875 358.902344 170.953125 359.367188 170.585938 359.816406 C 170.214844 360.265625 169.828125 360.695312 169.417969 361.105469 C 169.007812 361.515625 168.578125 361.902344 168.128906 362.269531 C 167.683594 362.640625 167.21875 362.984375 166.734375 363.304688 C 166.253906 363.628906 165.757812 363.925781 165.246094 364.199219 C 164.734375 364.472656 164.210938 364.722656 163.675781 364.941406 C 163.140625 365.164062 162.59375 365.359375 162.039062 365.527344 C 161.484375 365.695312 160.921875 365.835938 160.355469 365.949219 C 159.785156 366.0625 159.214844 366.148438 158.636719 366.207031 C 158.058594 366.261719 157.480469 366.289062 156.902344 366.289062 C 156.324219 366.289062 155.742188 366.261719 155.167969 366.207031 C 154.589844 366.148438 154.015625 366.0625 153.449219 365.949219 C 152.878906 365.835938 152.320312 365.695312 151.765625 365.527344 C 151.210938 365.359375 150.664062 365.164062 150.128906 364.941406 C 149.59375 364.722656 149.070312 364.472656 148.558594 364.199219 C 148.046875 363.925781 147.550781 363.628906 147.070312 363.304688 C 146.585938 362.984375 146.121094 362.640625 145.671875 362.269531 C 145.226562 361.902344 144.796875 361.515625 144.386719 361.105469 C 143.976562 360.695312 143.585938 360.265625 143.21875 359.816406 C 142.851562 359.367188 142.507812 358.902344 142.183594 358.421875 C 141.863281 357.9375 141.566406 357.441406 141.292969 356.929688 C 141.019531 356.417969 140.769531 355.894531 140.550781 355.359375 C 140.328125 354.824219 140.132812 354.277344 139.964844 353.722656 C 139.796875 353.167969 139.65625 352.605469 139.542969 352.035156 C 139.429688 351.46875 139.34375 350.894531 139.289062 350.316406 C 139.230469 349.742188 139.203125 349.164062 139.203125 348.582031 L 139.203125 338.488281 C 134.871094 338.988281 130.523438 339.21875 126.164062 339.179688 C 121.804688 339.144531 117.464844 338.839844 113.140625 338.265625 C 108.816406 337.695312 104.546875 336.859375 100.328125 335.761719 C 96.105469 334.660156 91.972656 333.308594 87.917969 331.699219 C 83.863281 330.09375 79.925781 328.242188 76.101562 326.148438 C 72.273438 324.054688 68.59375 321.734375 65.054688 319.1875 C 61.511719 316.636719 58.144531 313.882812 54.941406 310.921875 C 51.742188 307.957031 48.734375 304.808594 45.921875 301.476562 C 40.066406 294.980469 33.222656 289.785156 25.390625 285.894531 C 24.828125 285.746094 24.273438 285.574219 23.730469 285.375 C 23.183594 285.175781 22.648438 284.953125 22.125 284.699219 C 21.601562 284.449219 21.09375 284.171875 20.597656 283.867188 C 20.101562 283.566406 19.621094 283.242188 19.15625 282.890625 C 18.691406 282.542969 18.246094 282.171875 17.816406 281.777344 C 17.390625 281.386719 16.980469 280.972656 16.59375 280.539062 C 16.207031 280.105469 15.84375 279.65625 15.5 279.1875 C 15.15625 278.71875 14.835938 278.234375 14.542969 277.730469 C 14.246094 277.230469 13.976562 276.71875 13.730469 276.191406 C 13.488281 275.664062 13.269531 275.125 13.078125 274.578125 C 12.886719 274.03125 12.71875 273.472656 12.582031 272.910156 C 12.445312 272.34375 12.335938 271.773438 12.253906 271.199219 C 12.171875 270.625 12.121094 270.046875 12.097656 269.464844 C 12.070312 268.882812 12.074219 268.304688 12.109375 267.722656 C 12.140625 267.144531 12.199219 266.566406 12.289062 265.992188 C 12.378906 265.417969 12.496094 264.847656 12.640625 264.285156 C 12.785156 263.722656 12.957031 263.167969 13.15625 262.625 C 13.355469 262.078125 13.582031 261.542969 13.835938 261.019531 C 14.085938 260.496094 14.363281 259.984375 14.664062 259.488281 C 14.96875 258.992188 15.292969 258.511719 15.640625 258.046875 C 15.992188 257.585938 16.363281 257.136719 16.753906 256.710938 C 17.148438 256.28125 17.5625 255.875 17.996094 255.488281 C 18.429688 255.101562 18.878906 254.734375 19.347656 254.390625 C 19.816406 254.050781 20.300781 253.730469 20.800781 253.433594 C 21.300781 253.140625 21.816406 252.871094 22.34375 252.625 C 22.867188 252.378906 23.40625 252.164062 23.953125 251.96875 C 24.503906 251.777344 25.058594 251.613281 25.625 251.476562 C 26.1875 251.339844 26.757812 251.230469 27.332031 251.148438 C 27.90625 251.066406 28.484375 251.015625 29.066406 250.992188 C 29.644531 250.964844 30.226562 250.96875 30.804688 251.003906 C 31.386719 251.035156 31.960938 251.097656 32.535156 251.1875 C 33.109375 251.273438 33.679688 251.390625 34.242188 251.539062 C 41.050781 254.019531 47.449219 257.296875 53.441406 261.375 C 59.429688 265.449219 64.832031 270.199219 69.640625 275.621094 C 87.339844 293.332031 105.039062 308.914062 138.671875 302.539062 C 138.375 297.785156 138.570312 293.050781 139.257812 288.339844 C 139.941406 283.625 141.105469 279.03125 142.742188 274.558594 C 106.28125 265.351562 54.242188 239.140625 54.242188 150.597656 C 54.230469 145.382812 54.601562 140.195312 55.351562 135.035156 C 56.105469 129.875 57.230469 124.796875 58.730469 119.800781 C 60.226562 114.804688 62.085938 109.949219 64.300781 105.226562 C 66.511719 100.507812 69.0625 95.972656 71.941406 91.625 C 73.019531 90.011719 73.753906 88.257812 74.152344 86.359375 C 74.550781 84.460938 74.582031 82.558594 74.242188 80.648438 C 73.351562 75.894531 72.808594 71.101562 72.609375 66.265625 C 72.410156 61.433594 72.558594 56.613281 73.050781 51.800781 C 73.546875 46.992188 74.382812 42.238281 75.558594 37.546875 C 76.738281 32.859375 78.246094 28.277344 80.085938 23.800781 C 80.585938 22.601562 81.210938 21.472656 81.964844 20.410156 C 82.714844 19.351562 83.570312 18.382812 84.535156 17.511719 C 85.5 16.640625 86.546875 15.882812 87.675781 15.242188 C 88.804688 14.597656 89.992188 14.089844 91.234375 13.707031 C 97.253906 11.9375 118.847656 8.394531 159.734375 34.957031 C 167.980469 32.972656 176.3125 31.480469 184.734375 30.480469 C 193.15625 29.480469 201.609375 28.980469 210.089844 28.980469 C 218.570312 28.980469 227.023438 29.480469 235.445312 30.480469 C 243.867188 31.480469 252.203125 32.972656 260.445312 34.957031 C 301.335938 8.394531 322.929688 11.761719 328.769531 13.707031 C 330.011719 14.089844 331.199219 14.597656 332.328125 15.242188 C 333.457031 15.882812 334.503906 16.640625 335.46875 17.511719 C 336.433594 18.382812 337.289062 19.351562 338.039062 20.410156 C 338.792969 21.472656 339.417969 22.601562 339.921875 23.800781 C 341.761719 28.289062 343.273438 32.886719 344.453125 37.59375 C 345.632812 42.296875 346.46875 47.0625 346.964844 51.890625 C 347.457031 56.714844 347.605469 61.554688 347.402344 66.402344 C 347.203125 71.246094 346.652344 76.054688 345.761719 80.824219 C 345.394531 82.570312 345.382812 84.316406 345.71875 86.066406 C 346.054688 87.816406 346.71875 89.433594 347.707031 90.917969 C 350.597656 95.277344 353.152344 99.824219 355.371094 104.558594 C 357.589844 109.292969 359.449219 114.167969 360.945312 119.175781 C 362.445312 124.1875 363.570312 129.28125 364.316406 134.457031 C 365.066406 139.632812 365.429688 144.835938 365.40625 150.066406 C 365.40625 239.851562 313.722656 265.882812 276.90625 274.027344 C 280.183594 283.625 281.480469 293.484375 280.800781 303.601562 L 280.800781 348.582031 C 280.804688 349.703125 280.699219 350.8125 280.492188 351.910156 C 280.285156 353.011719 279.972656 354.082031 279.5625 355.121094 C 279.152344 356.164062 278.648438 357.15625 278.046875 358.101562 C 277.449219 359.046875 276.765625 359.925781 276 360.742188 C 275.234375 361.558594 274.394531 362.296875 273.492188 362.953125 C 272.585938 363.609375 271.625 364.175781 270.613281 364.648438 C 269.597656 365.125 268.550781 365.5 267.464844 365.777344 C 266.382812 366.050781 265.28125 366.222656 264.164062 366.289062 Z M 264.164062 366.289062 " fill-opacity="1" fill-rule="nonzero"/></g></svg>