<svg xmlns="http://www.w3.org/2000/svg" xmlns:xlink="http://www.w3.org/1999/xlink" width="500" zoomAndPan="magnify" viewBox="0 0 375 374.999991" height="500" preserveAspectRatio="xMidYMid meet" version="1.0"><defs><clipPath id="b6ad94fe4c"><path d="M 2.445312 2.445312 L 372.195312 2.445312 L 372.195312 372.195312 L 2.445312 372.195312 Z M 2.445312 2.445312 " clip-rule="nonzero"/></clipPath></defs><path stroke-linecap="butt" transform="matrix(16.806816, 0, 0, 16.806816, -14.362173, -14.362178)" fill="none" stroke-linejoin="round" d="M 17.999979 6.500041 C 17.723863 6.500041 17.500042 6.27622 17.500042 6.000104 C 17.500042 5.723756 17.723863 5.499935 17.999979 5.499935 " stroke="#000000" stroke-width="1" stroke-opacity="1" stroke-miterlimit="4"/><path stroke-linecap="butt" transform="matrix(16.806816, 0, 0, 16.806816, -14.362173, -14.362178)" fill="none" stroke-linejoin="round" d="M 17.999979 6.500041 C 18.276094 6.500041 18.499916 6.27622 18.499916 6.000104 C 18.499916 5.723756 18.276094 5.499935 17.999979 5.499935 " stroke="#000000" stroke-width="1" stroke-opacity="1" stroke-miterlimit="4"/><path stroke-linecap="butt" transform="matrix(16.806816, 0, 0, 16.806816, -14.362173, -14.362178)" fill="none" stroke-linejoin="round" d="M 17.000105 12.000042 C 17.000105 12.081854 16.998014 12.163666 16.994063 12.245245 C 16.989879 12.327057 16.983836 12.408637 16.975934 12.489984 C 16.967799 12.571564 16.957805 12.652679 16.945951 12.733561 C 16.933866 12.814676 16.91992 12.895093 16.903883 12.975511 C 16.887846 13.055696 16.86995 13.135416 16.850194 13.214904 C 16.830206 13.294392 16.808358 13.373182 16.784652 13.451508 C 16.760945 13.529834 16.735378 13.607462 16.70772 13.684394 C 16.680062 13.761557 16.650777 13.837791 16.619401 13.913328 C 16.588024 13.989097 16.55502 14.063704 16.519925 14.137846 C 16.485061 14.211756 16.448107 14.284736 16.409525 14.357019 C 16.370943 14.429069 16.330734 14.500422 16.288666 14.570613 C 16.246598 14.640804 16.202903 14.709833 16.157348 14.777932 C 16.111794 14.845799 16.064845 14.912736 16.016037 14.978511 C 15.967228 15.044286 15.917026 15.108667 15.864963 15.171885 C 15.813134 15.235104 15.759677 15.29716 15.704826 15.357822 C 15.649742 15.418484 15.593496 15.477751 15.535623 15.535624 C 15.477751 15.593496 15.418483 15.649742 15.357822 15.704826 C 15.29716 15.759677 15.235104 15.813134 15.171885 15.864964 C 15.108667 15.917026 15.044286 15.967229 14.978511 16.016037 C 14.912736 16.064845 14.845799 16.111794 14.777932 16.157349 C 14.709833 16.202903 14.640804 16.246598 14.570613 16.288666 C 14.500422 16.330734 14.429069 16.370943 14.357019 16.409525 C 14.284736 16.448107 14.211756 16.485062 14.137846 16.519925 C 14.063704 16.55502 13.989097 16.588024 13.913328 16.619401 C 13.837791 16.650778 13.761557 16.680063 13.684393 16.707721 C 13.607462 16.735379 13.529834 16.760945 13.451508 16.784652 C 13.373182 16.808359 13.294392 16.830206 13.214904 16.850194 C 13.135416 16.86995 13.055696 16.887847 12.975511 16.903884 C 12.895093 16.919921 12.814676 16.933866 12.733561 16.945952 C 12.652678 16.957805 12.571564 16.967799 12.489984 16.975934 C 12.408637 16.983836 12.327057 16.989879 12.245245 16.994063 C 12.163665 16.998014 12.081853 17.000106 12.000041 17.000106 C 11.918229 17.000106 11.836417 16.998014 11.754605 16.994063 C 11.673026 16.989879 11.591446 16.983836 11.509866 16.975934 C 11.428519 16.967799 11.347404 16.957805 11.26629 16.945952 C 11.185407 16.933866 11.104757 16.919921 11.024572 16.903884 C 10.944387 16.887847 10.864434 16.86995 10.785179 16.850194 C 10.705691 16.830206 10.626901 16.808359 10.548575 16.784652 C 10.470249 16.760945 10.392621 16.735379 10.315457 16.707721 C 10.238526 16.680063 10.162292 16.650778 10.086523 16.619401 C 10.010986 16.588024 9.936147 16.55502 9.862237 16.519925 C 9.788327 16.485062 9.715115 16.448107 9.643064 16.409525 C 9.570781 16.370943 9.499661 16.330734 9.42947 16.288666 C 9.359279 16.246598 9.29025 16.202903 9.222151 16.157349 C 9.154051 16.111794 9.087114 16.064845 9.021572 16.016037 C 8.955797 15.967229 8.891184 15.917026 8.827965 15.864964 C 8.764747 15.813134 8.702923 15.759677 8.642261 15.704826 C 8.581599 15.649742 8.522332 15.593496 8.464459 15.535624 C 8.406587 15.477751 8.350108 15.418484 8.295257 15.357822 C 8.240406 15.29716 8.186949 15.235104 8.134887 15.171885 C 8.083057 15.108667 8.032622 15.044286 7.984046 14.978511 C 7.935238 14.912736 7.888056 14.845799 7.842734 14.777932 C 7.79718 14.709833 7.753485 14.640804 7.711417 14.570613 C 7.669349 14.500422 7.628907 14.429069 7.590326 14.357019 C 7.551744 14.284736 7.515021 14.211756 7.480158 14.137846 C 7.445063 14.063704 7.411827 13.989097 7.380682 13.913328 C 7.349305 13.837791 7.319788 13.761557 7.292362 13.684394 C 7.264704 13.607462 7.239138 13.529834 7.215199 13.451508 C 7.191492 13.373182 7.169644 13.294392 7.149889 13.214904 C 7.1299 13.135416 7.112004 13.055696 7.095967 12.975511 C 7.080162 12.895093 7.066217 12.814676 7.054131 12.733561 C 7.042045 12.652679 7.032051 12.571564 7.024149 12.489984 C 7.016014 12.408637 7.009971 12.327057 7.00602 12.245245 C 7.002069 12.163666 6.999977 12.081854 6.999977 12.000042 C 6.999977 11.91823 7.002069 11.836418 7.00602 11.754606 C 7.009971 11.673026 7.016014 11.591446 7.024149 11.509867 C 7.032051 11.428519 7.042045 11.347405 7.054131 11.26629 C 7.066217 11.185407 7.080162 11.104758 7.095967 11.024572 C 7.112004 10.944387 7.1299 10.864435 7.149889 10.785179 C 7.169644 10.705691 7.191492 10.626901 7.215199 10.548575 C 7.239138 10.470249 7.264704 10.392621 7.292362 10.315457 C 7.319788 10.238526 7.349305 10.162292 7.380682 10.086523 C 7.411827 10.010986 7.445063 9.936147 7.480158 9.862237 C 7.515021 9.788327 7.551744 9.715115 7.590326 9.643064 C 7.628907 9.570782 7.669349 9.499661 7.711417 9.42947 C 7.753485 9.359279 7.79718 9.29025 7.842734 9.222151 C 7.888056 9.154052 7.935238 9.087114 7.984046 9.021572 C 8.032622 8.955797 8.083057 8.891184 8.134887 8.827965 C 8.186949 8.764747 8.240406 8.702923 8.295257 8.642261 C 8.350108 8.5816 8.406587 8.522332 8.464459 8.46446 C 8.522332 8.406587 8.581599 8.350109 8.642261 8.295257 C 8.702923 8.240406 8.764747 8.18695 8.827965 8.134887 C 8.891184 8.083057 8.955797 8.032622 9.021572 7.984046 C 9.087114 7.935238 9.154051 7.888057 9.222151 7.842735 C 9.29025 7.79718 9.359279 7.753485 9.42947 7.711417 C 9.499661 7.669349 9.570781 7.628908 9.643064 7.590326 C 9.715115 7.551744 9.788327 7.515022 9.862237 7.480158 C 9.936147 7.445063 10.010986 7.411827 10.086523 7.380682 C 10.162292 7.349306 10.238526 7.319788 10.315457 7.292363 C 10.392621 7.264705 10.470249 7.239138 10.548575 7.215199 C 10.626901 7.191492 10.705691 7.169645 10.785179 7.149889 C 10.864434 7.129901 10.944387 7.112004 11.024572 7.095967 C 11.104757 7.080163 11.185407 7.066217 11.26629 7.054132 C 11.347404 7.042046 11.428519 7.032052 11.509866 7.024149 C 11.591446 7.016015 11.673026 7.009972 11.754605 7.006021 C 11.836417 7.002069 11.918229 6.999978 12.000041 6.999978 C 12.081853 6.999978 12.163665 7.002069 12.245245 7.006021 C 12.327057 7.009972 12.408637 7.016015 12.489984 7.024149 C 12.571564 7.032052 12.652678 7.042046 12.733561 7.054132 C 12.814676 7.066217 12.895093 7.080163 12.975511 7.095967 C 13.055696 7.112004 13.135416 7.129901 13.214904 7.149889 C 13.294392 7.169645 13.373182 7.191492 13.451508 7.215199 C 13.529834 7.239138 13.607462 7.264705 13.684393 7.292363 C 13.761557 7.319788 13.837791 7.349306 13.913328 7.380682 C 13.989097 7.411827 14.063704 7.445063 14.137846 7.480158 C 14.211756 7.515022 14.284736 7.551744 14.357019 7.590326 C 14.429069 7.628908 14.500422 7.669349 14.570613 7.711417 C 14.640804 7.753485 14.709833 7.79718 14.777932 7.842735 C 14.845799 7.888057 14.912736 7.935238 14.978511 7.984046 C 15.044286 8.032622 15.108667 8.083057 15.171885 8.134887 C 15.235336 8.18695 15.29716 8.240406 15.357822 8.295257 C 15.418483 8.350109 15.477751 8.406587 15.535623 8.46446 C 15.593496 8.522332 15.649742 8.5816 15.704826 8.642261 C 15.759677 8.702923 15.813134 8.764747 15.864963 8.827965 C 15.917026 8.891184 15.967228 8.955797 16.016037 9.021572 C 16.064845 9.087114 16.111794 9.154052 16.157348 9.222151 C 16.202903 9.29025 16.246598 9.359279 16.288666 9.42947 C 16.330734 9.499661 16.370943 9.570782 16.409525 9.643064 C 16.448107 9.715115 16.485061 9.788327 16.519925 9.862237 C 16.55502 9.936147 16.588024 10.010986 16.619401 10.086523 C 16.650777 10.162292 16.680062 10.238526 16.70772 10.315457 C 16.735378 10.392621 16.760945 10.470249 16.784652 10.548575 C 16.808358 10.626901 16.830206 10.705691 16.850194 10.785179 C 16.86995 10.864435 16.887846 10.944387 16.903883 11.024572 C 16.91992 11.104758 16.933866 11.185407 16.945951 11.26629 C 16.957805 11.347405 16.967799 11.428519 16.975934 11.509867 C 16.983836 11.591446 16.989879 11.673026 16.994063 11.754606 C 16.998014 11.836418 17.000105 11.91823 17.000105 12.000042 Z M 17.000105 12.000042 " stroke="#000000" stroke-width="1" stroke-opacity="1" stroke-miterlimit="4"/><g clip-path="url(#b6ad94fe4c)"><path stroke-linecap="butt" transform="matrix(16.806816, 0, 0, 16.806816, -14.362173, -14.362178)" fill="none" stroke-linejoin="miter" d="M 16.499936 1.499977 L 7.499914 1.499977 C 4.186294 1.499977 1.499977 4.186294 1.499977 7.499914 L 1.499977 16.499937 C 1.499977 19.813789 4.186294 22.500106 7.499914 22.500106 L 16.499936 22.500106 C 19.813789 22.500106 22.500106 19.813789 22.500106 16.499937 L 22.500106 7.499914 C 22.500106 4.186294 19.813789 1.499977 16.499936 1.499977 Z M 16.499936 1.499977 " stroke="#000000" stroke-width="1" stroke-opacity="1" stroke-miterlimit="4"/></g></svg>