<svg xmlns="http://www.w3.org/2000/svg" xmlns:xlink="http://www.w3.org/1999/xlink" width="500" zoomAndPan="magnify" viewBox="0 0 375 374.999991" height="500" preserveAspectRatio="xMidYMid meet" version="1.0"><defs><clipPath id="fef0001969"><path d="M 6.609375 6.609375 L 368.109375 6.609375 L 368.109375 368.109375 L 6.609375 368.109375 Z M 6.609375 6.609375 " clip-rule="nonzero"/></clipPath></defs><g clip-path="url(#fef0001969)"><path fill="#2197bd" d="M 368.113281 313.144531 C 368.113281 343.480469 343.519531 368.074219 313.179688 368.074219 L 61.554688 368.074219 C 31.214844 368.074219 6.625 343.480469 6.625 313.144531 L 6.625 61.519531 C 6.625 31.179688 31.21875 6.589844 61.554688 6.589844 L 313.179688 6.589844 C 343.519531 6.589844 368.113281 31.179688 368.113281 61.519531 Z M 368.113281 313.144531 " fill-opacity="1" fill-rule="nonzero"/></g><path fill="#ffffff" d="M 149.5625 135.558594 C 149.5625 136.441406 149.519531 137.324219 149.433594 138.203125 C 149.347656 139.085938 149.21875 139.957031 149.046875 140.824219 C 148.871094 141.695312 148.660156 142.550781 148.402344 143.398438 C 148.144531 144.242188 147.847656 145.074219 147.507812 145.890625 C 147.171875 146.707031 146.792969 147.507812 146.375 148.289062 C 145.957031 149.066406 145.503906 149.824219 145.011719 150.558594 C 144.523438 151.296875 143.996094 152.003906 143.433594 152.6875 C 142.875 153.371094 142.28125 154.027344 141.65625 154.652344 C 141.03125 155.277344 140.375 155.871094 139.691406 156.433594 C 139.007812 156.992188 138.296875 157.519531 137.5625 158.011719 C 136.828125 158.503906 136.070312 158.957031 135.289062 159.375 C 134.511719 159.789062 133.710938 160.167969 132.894531 160.507812 C 132.078125 160.84375 131.246094 161.140625 130.398438 161.398438 C 129.550781 161.65625 128.695312 161.871094 127.828125 162.042969 C 126.960938 162.214844 126.085938 162.34375 125.207031 162.433594 C 124.328125 162.519531 123.445312 162.5625 122.558594 162.5625 C 121.675781 162.5625 120.792969 162.519531 119.914062 162.433594 C 119.03125 162.34375 118.160156 162.214844 117.292969 162.042969 C 116.425781 161.871094 115.566406 161.65625 114.722656 161.398438 C 113.875 161.140625 113.042969 160.84375 112.226562 160.507812 C 111.410156 160.167969 110.609375 159.789062 109.832031 159.375 C 109.050781 158.957031 108.292969 158.503906 107.558594 158.011719 C 106.820312 157.519531 106.113281 156.992188 105.429688 156.433594 C 104.746094 155.871094 104.089844 155.277344 103.464844 154.652344 C 102.839844 154.027344 102.246094 153.371094 101.6875 152.6875 C 101.125 152.003906 100.597656 151.296875 100.105469 150.558594 C 99.617188 149.824219 99.160156 149.066406 98.746094 148.289062 C 98.328125 147.507812 97.949219 146.707031 97.613281 145.890625 C 97.273438 145.074219 96.976562 144.242188 96.71875 143.398438 C 96.460938 142.550781 96.246094 141.691406 96.074219 140.824219 C 95.902344 139.957031 95.773438 139.085938 95.6875 138.203125 C 95.597656 137.324219 95.554688 136.441406 95.554688 135.558594 C 95.554688 134.671875 95.597656 133.789062 95.6875 132.910156 C 95.773438 132.03125 95.902344 131.15625 96.074219 130.289062 C 96.246094 129.421875 96.460938 128.566406 96.71875 127.71875 C 96.976562 126.871094 97.273438 126.039062 97.613281 125.222656 C 97.949219 124.40625 98.328125 123.609375 98.746094 122.828125 C 99.160156 122.046875 99.617188 121.289062 100.105469 120.554688 C 100.597656 119.820312 101.125 119.109375 101.6875 118.425781 C 102.246094 117.742188 102.839844 117.089844 103.464844 116.460938 C 104.089844 115.835938 104.746094 115.246094 105.429688 114.683594 C 106.113281 114.121094 106.820312 113.597656 107.558594 113.105469 C 108.292969 112.613281 109.050781 112.160156 109.832031 111.742188 C 110.609375 111.324219 111.410156 110.949219 112.226562 110.609375 C 113.042969 110.269531 113.875 109.972656 114.722656 109.714844 C 115.566406 109.460938 116.425781 109.246094 117.292969 109.074219 C 118.160156 108.898438 119.03125 108.769531 119.914062 108.683594 C 120.792969 108.597656 121.675781 108.554688 122.558594 108.554688 C 123.445312 108.554688 124.328125 108.597656 125.207031 108.683594 C 126.085938 108.769531 126.960938 108.898438 127.828125 109.074219 C 128.695312 109.246094 129.550781 109.460938 130.398438 109.714844 C 131.246094 109.972656 132.078125 110.269531 132.894531 110.609375 C 133.710938 110.949219 134.511719 111.324219 135.289062 111.742188 C 136.070312 112.160156 136.828125 112.613281 137.5625 113.105469 C 138.296875 113.597656 139.007812 114.121094 139.691406 114.683594 C 140.375 115.246094 141.03125 115.835938 141.65625 116.460938 C 142.28125 117.089844 142.875 117.742188 143.433594 118.425781 C 143.996094 119.109375 144.523438 119.820312 145.011719 120.554688 C 145.503906 121.289062 145.957031 122.046875 146.375 122.828125 C 146.792969 123.609375 147.171875 124.40625 147.507812 125.222656 C 147.847656 126.039062 148.144531 126.871094 148.402344 127.71875 C 148.660156 128.566406 148.871094 129.421875 149.046875 130.289062 C 149.21875 131.15625 149.347656 132.03125 149.433594 132.910156 C 149.519531 133.789062 149.5625 134.671875 149.5625 135.558594 Z M 149.5625 135.558594 " fill-opacity="1" fill-rule="nonzero"/><path fill="#ffffff" d="M 99.28125 182.46875 L 145.671875 182.46875 L 145.671875 331.714844 L 99.28125 331.714844 Z M 99.28125 182.46875 " fill-opacity="1" fill-rule="nonzero"/><path fill="#ffffff" d="M 174.851562 182.46875 L 219.007812 182.46875 L 219.007812 331.714844 L 174.851562 331.714844 Z M 174.851562 182.46875 " fill-opacity="1" fill-rule="nonzero"/><path fill="#ffffff" d="M 176.757812 261.933594 L 220.914062 261.933594 L 220.914062 331.714844 L 176.757812 331.714844 Z M 176.757812 261.933594 " fill-opacity="1" fill-rule="nonzero"/><path fill="#ffffff" d="M 220.914062 261.933594 C 220.914062 261.933594 220.222656 242.574219 225.328125 232.511719 C 225.328125 232.511719 230.433594 220.113281 246.480469 220.039062 C 246.480469 220.039062 265.300781 216.753906 270.699219 235.429688 C 270.699219 235.429688 272.742188 245.785156 272.742188 250.164062 C 272.742188 254.542969 272.886719 331.714844 272.886719 331.714844 L 319.132812 331.714844 L 319.132812 246.226562 C 319.132812 246.226562 322.488281 197.933594 293.503906 184.707031 C 293.503906 184.707031 245.847656 163.3125 219.980469 202.605469 C 219.980469 202.605469 214.339844 206.492188 213.558594 195.597656 C 212.78125 184.707031 206.167969 212.328125 205.972656 212.914062 C 205.777344 213.496094 213.558594 267.960938 213.558594 267.960938 Z M 220.914062 261.933594 " fill-opacity="1" fill-rule="nonzero"/></svg>